<svg width="278" height="278" viewBox="0 0 278 278" fill="none" xmlns="http://www.w3.org/2000/svg">
<circle cx="139" cy="139" r="139" fill="url(#paint0_linear_4_29)"/>
<path d="M79.0299 131.4C74.1299 129.6 69.5299 127.75 65.2299 125.85C60.9299 123.95 57.1799 121.75 53.9799 119.25C50.8799 116.65 48.3799 113.55 46.4799 109.95C44.6799 106.35 43.7799 101.9 43.7799 96.6C43.7799 90 44.8299 84.35 46.9299 79.65C49.0299 74.95 51.9299 71.1 55.6299 68.1C59.3299 65.1 63.7299 62.9 68.8299 61.5C74.0299 60 79.7299 59.25 85.9299 59.25C92.0299 59.25 97.6299 60 102.73 61.5C107.93 63 112.38 65.2 116.08 68.1C119.78 71 122.68 74.55 124.78 78.75C126.88 82.85 127.93 87.55 127.93 92.85V93.45C127.83 95.45 126.83 96.45 124.93 96.45H100.48C98.4799 96.45 97.4799 95.4 97.4799 93.3V92.55C97.4799 90.25 96.5299 88.35 94.6299 86.85C92.8299 85.25 90.1299 84.45 86.5299 84.45C79.3299 84.45 75.7299 88 75.7299 95.1C75.7299 98.3 77.2299 100.8 80.2299 102.6C83.2299 104.4 88.0299 106.45 94.6299 108.75C100.13 110.65 105.03 112.65 109.33 114.75C113.63 116.85 117.23 119.25 120.13 121.95C123.13 124.55 125.38 127.6 126.88 131.1C128.48 134.6 129.28 138.7 129.28 143.4C129.28 150 128.13 155.7 125.83 160.5C123.63 165.2 120.58 169.15 116.68 172.35C112.78 175.45 108.13 177.75 102.73 179.25C97.4299 180.75 91.6799 181.5 85.4799 181.5C79.3799 181.5 73.6799 180.75 68.3799 179.25C63.1799 177.75 58.6299 175.55 54.7299 172.65C50.8299 169.75 47.7299 166.25 45.4299 162.15C43.2299 157.95 42.1299 153.2 42.1299 147.9V147.3C42.2299 145.3 43.2299 144.3 45.1299 144.3H69.5799C71.5799 144.3 72.5799 145.35 72.5799 147.45V148.35C72.5799 150.85 73.6299 152.8 75.7299 154.2C77.9299 155.6 81.1299 156.3 85.3299 156.3C89.6299 156.3 92.6799 155.35 94.4799 153.45C96.3799 151.45 97.3299 148.7 97.3299 145.2C97.3299 143.1 96.7299 141.35 95.5299 139.95C94.3299 138.45 92.8299 137.2 91.0299 136.2C89.2299 135.1 87.2299 134.2 85.0299 133.5C82.9299 132.8 80.9299 132.1 79.0299 131.4ZM178.2 134.7C176.1 134.7 175.05 133.7 175.05 131.7V108.45C175.05 106.45 176.1 105.45 178.2 105.45H203.55V64.35C203.55 62.45 204.55 61.5 206.55 61.5H231.15C233.25 61.5 234.3 62.45 234.3 64.35V176.1C234.3 178.2 233.3 179.25 231.3 179.25H206.55C204.55 179.25 203.55 178.2 203.55 176.1V134.7H178.2ZM170.55 176.1C170.55 178.2 169.5 179.25 167.4 179.25H142.8C140.8 179.25 139.8 178.2 139.8 176.1V64.35C139.8 62.45 140.8 61.5 142.8 61.5H167.4C169.5 61.5 170.55 62.45 170.55 64.35V176.1Z" fill="white"/>
<path d="M36.1299 199.95H241.8V203.55H36.1299V199.95Z" fill="white"/>
<defs>
<linearGradient id="paint0_linear_4_29" x1="30" y1="37" x2="229" y2="233" gradientUnits="userSpaceOnUse">
<stop stop-color="#2395FF"/>
<stop offset="1" stop-color="#CEA8FF"/>
</linearGradient>
</defs>
</svg>
